<?xml version="1.0" encoding="UTF-8"?>
<svg id="_图层_1" data-name="图层_1" xmlns="http://www.w3.org/2000/svg" version="1.1" viewBox="0 0 200 37.3">
  <!-- Generator: Adobe Illustrator 29.8.2, SVG Export Plug-In . SVG Version: 2.1.1 Build 3)  -->
  <defs>
    <style>
      .st0 {
        fill: #fff;
      }

      .st1, .st2 {
        fill: #c00;
      }

      .st2 {
        fill-rule: evenodd;
      }
    </style>
  </defs>
  <path class="st2" d="M33.14,29.05c-2.26,0-4.1,1.83-4.1,4.1s1.83,4.1,4.1,4.1,4.1-1.83,4.1-4.1-1.83-4.1-4.1-4.1ZM28.49,0H8.81C3.97,0,0,3.97,0,8.81v19.68c0,4.85,3.97,8.81,8.81,8.81h19.68c.13,0,.25,0,.38,0-1.04-1.07-1.68-2.54-1.68-4.15,0-.46.05-.91.15-1.35H8.81c-1.82,0-3.31-1.49-3.31-3.31V8.81c0-1.82,1.49-3.31,3.31-3.31h19.68c1.82,0,3.31,1.49,3.31,3.31v18.53c.43-.1.88-.15,1.35-.15,1.61,0,3.08.64,4.15,1.68,0-.13,0-.25,0-.38V8.81C37.3,3.97,33.34,0,28.49,0ZM28.17,28.17V9.14h-5.5v6.76h-8.02v-6.76h-5.5v19.03h5.5v-6.76h8.02v6.76h5.5Z"/>
  <polygon class="st0" points="63.76 4.51 63.76 22.17 63.65 22.17 51.55 4.55 51.53 4.51 46.19 4.51 46.19 32.76 52.29 32.76 52.29 15.09 52.37 15.09 64.59 32.76 69.84 32.76 69.84 4.51 63.76 4.51"/>
  <polygon class="st0" points="105.03 22.15 111.18 11.53 104.99 11.53 101.08 18.8 97.27 11.53 91.03 11.53 97.12 22.15 90.81 32.76 97.05 32.76 101.08 25.57 105.16 32.72 105.19 32.76 111.35 32.76 105.03 22.15"/>
  <path class="st1" d="M176.13,14.43h-6.01c-.11-.78-.33-1.47-.67-2.08-.34-.61-.77-1.13-1.3-1.56-.53-.43-1.14-.76-1.83-.99-.69-.23-1.44-.34-2.24-.34-1.45,0-2.72.36-3.8,1.08-1.08.72-1.92,1.76-2.51,3.13s-.89,3.02-.89,4.97.3,3.68.9,5.05c.6,1.36,1.44,2.39,2.52,3.09s2.33,1.04,3.74,1.04c.8,0,1.53-.1,2.21-.32.68-.21,1.29-.52,1.82-.93.53-.41.97-.9,1.32-1.49.35-.58.6-1.25.73-2l6.01.03c-.16,1.29-.54,2.53-1.16,3.72-.62,1.19-1.44,2.26-2.48,3.19-1.04.94-2.27,1.68-3.7,2.22-1.43.54-3.05.82-4.85.82-2.5,0-4.74-.57-6.71-1.7-1.97-1.13-3.52-2.77-4.66-4.92-1.14-2.15-1.71-4.75-1.71-7.8s.58-5.67,1.73-7.82c1.15-2.15,2.71-3.79,4.69-4.92,1.97-1.13,4.2-1.69,6.66-1.69,1.63,0,3.14.23,4.53.69,1.39.46,2.63,1.12,3.71,1.99,1.08.87,1.96,1.94,2.64,3.2.68,1.26,1.12,2.71,1.31,4.33Z"/>
  <path class="st0" d="M124.42,28.05l-.02-.08-.08.02c-.15.03-.36.07-.63.12-.27.05-.54.07-.81.07-.38,0-.72-.06-1-.17-.28-.11-.5-.31-.65-.59-.16-.28-.24-.69-.24-1.21v-10.12h3.96v-4.56h-3.96v-7.14l-5.97,3.45-.04.02v3.67h-2.88v4.56h2.88v10.88c0,1.39.29,2.56.88,3.47.59.92,1.43,1.6,2.5,2.03.94.38,2.04.58,3.26.58.15,0,.31,0,.47,0,.76-.03,1.42-.1,1.95-.23.54-.13.95-.23,1.24-.32l.07-.02-.94-4.42Z"/>
  <path class="st0" d="M77.9,23.73h13.52v-1.69c0-1.79-.26-3.38-.76-4.73-.5-1.34-1.22-2.48-2.12-3.37-.91-.89-1.98-1.57-3.18-2.01-1.21-.44-2.52-.67-3.92-.67-2.07,0-3.9.47-5.44,1.38-1.54.92-2.75,2.22-3.59,3.86-.84,1.64-1.27,3.57-1.27,5.74s.43,4.18,1.27,5.8c.84,1.63,2.07,2.91,3.63,3.79,1.56.89,3.46,1.33,5.63,1.33,1.74,0,3.3-.27,4.63-.81,1.34-.54,2.44-1.3,3.3-2.27.85-.97,1.42-2.13,1.7-3.43l.02-.1-5.5-.36h-.06s-.02.05-.02.05c-.2.52-.48.96-.86,1.31-.37.36-.83.63-1.35.8-.53.18-1.12.27-1.76.27-.96,0-1.8-.2-2.49-.61-.7-.4-1.24-.98-1.62-1.72-.38-.74-.57-1.64-.57-2.68v-3.54s.01-.08.01-.08c.04-.75.23-1.43.57-2.03.37-.66.9-1.2,1.57-1.6.66-.4,1.44-.6,2.31-.6s1.57.18,2.2.54c.63.36,1.13.86,1.48,1.5.34.61.52,1.32.54,2.11h-7.86v3.8Z"/>
  <path class="st1" d="M148.35,9.17c-.79-1.43-1.94-2.55-3.43-3.36-1.5-.81-3.31-1.21-5.44-1.21h-11.08v28.08h5.94v-8.2h0v-5.66s0,0,0,0v-9.36h4c1.15,0,2.1.19,2.85.58.75.39,1.31.93,1.68,1.63.37.7.56,1.52.56,2.45s-.19,1.74-.56,2.45c-.37.71-.93,1.26-1.67,1.66-.74.4-1.69.6-2.83.6h-3.21v4.76h4.17c2.16,0,4-.4,5.52-1.19,1.52-.8,2.69-1.91,3.49-3.33.8-1.43,1.21-3.07,1.21-4.94s-.4-3.51-1.19-4.94Z"/>
  <path class="st1" d="M199.12,21.35c-.59-1-1.35-1.78-2.28-2.34-.94-.56-1.94-.86-3.01-.9v-.27c.98-.22,1.85-.59,2.61-1.12.76-.53,1.36-1.2,1.8-2.03.44-.83.66-1.79.66-2.89,0-1.41-.35-2.65-1.04-3.74-.69-1.08-1.73-1.93-3.11-2.54s-3.1-.92-5.17-.92h-11.24v28.08h12c2.1,0,3.87-.34,5.31-1.01,1.43-.68,2.52-1.6,3.26-2.76.74-1.17,1.1-2.49,1.1-3.98,0-1.38-.29-2.57-.88-3.57ZM192.73,26.87c-.76.64-1.97.95-3.62.95h-4.84v-7.46h0v-4.02s0,0,0,0v-6.95h4.51c1.32,0,2.33.31,3.05.93s1.08,1.44,1.08,2.45c0,.74-.19,1.38-.56,1.91-.37.53-.87.94-1.51,1.23s-1.36.43-2.17.43h-3.58v4.02h4.16c.95,0,1.77.17,2.46.51.69.34,1.22.8,1.6,1.4.37.59.56,1.28.56,2.06,0,1.06-.38,1.91-1.14,2.54Z"/>
</svg>