<svg width="800" height="600" xmlns="http://www.w3.org/2000/svg">
 <g>
  <title>Layer 1</title>
  <g id="svg_1">
   <path id="svg_3" class="cls-1" d="m333.13408,310.40001a4.1,4.1 0 1 0 4.1,4.09a4.09,4.09 0 0 0 -4.1,-4.09zm-4.65,-29.05l-19.68,0a8.84,8.84 0 0 0 -8.81,8.81l0,19.68a8.84,8.84 0 0 0 8.81,8.81l20.06,0a6,6 0 0 1 -1.53,-5.49l-18.53,0a3.32,3.32 0 0 1 -3.31,-3.32l0,-19.68a3.32,3.32 0 0 1 3.31,-3.31l19.68,0a3.32,3.32 0 0 1 3.31,3.31l0,18.53a6,6 0 0 1 5.49,1.53c0,-0.13 0,-0.25 0,-0.38l0,-19.68a8.83,8.83 0 0 0 -8.8,-8.81zm-0.32,28.17l0,-19l-5.51,0l0,6.77l-8,0l0,-6.81l-5.52,0l0,19l5.5,0l0,-6.71l8,0l0,6.77l5.53,-0.02z" fill="#c00" fill-rule="evenodd"/>
   <polygon fill="#ffffff" id="svg_4" points="363.75407791137695,285.8600158691406 363.75407791137695,303.52001953125 363.64408111572266,303.52001953125 351.5440788269043,285.8999938964844 351.5240783691406,285.8600158691406 346.18407821655273,285.8600158691406 346.18407821655273,314.1100158691406 352.2840805053711,314.1100158691406 352.2840805053711,296.44000244140625 352.3640785217285,296.44000244140625 364.57408142089844,314.1100158691406 369.8340759277344,314.1100158691406 369.8340759277344,285.8600158691406 363.75407791137695,285.8600158691406 "/>
   <polygon fill="#ffffff" id="svg_5" points="405.0240783691406,303.5 411.17407989501953,292.8800048828125 404.9840774536133,292.8800048828125 401.07408142089844,300.1499938964844 397.26407623291016,292.8800048828125 391.0240783691406,292.8800048828125 397.1140823364258,303.5 390.8040771484375,314.1100158691406 397.04408264160156,314.1100158691406 401.07408142089844,306.9200134277344 405.1540832519531,314.07000732421875 405.18408203125,314.1100158691406 411.34407806396484,314.1100158691406 405.0240783691406,303.5 "/>
   <path id="svg_6" class="cls-2" d="m476.12408,295.77001l-6,0a5.92,5.92 0 0 0 -0.67,-2.08a5.31,5.31 0 0 0 -1.3,-1.56a5.75,5.75 0 0 0 -1.83,-1a7.07,7.07 0 0 0 -2.25,-0.35a6.64,6.64 0 0 0 -3.79,1.08a6.94,6.94 0 0 0 -2.51,3.13a12.3,12.3 0 0 0 -0.89,5a12.49,12.49 0 0 0 0.89,5a6.5,6.5 0 0 0 6.22,4.17a7.49,7.49 0 0 0 2.22,-0.32a5.62,5.62 0 0 0 1.81,-0.92a5.28,5.28 0 0 0 1.33,-1.49a6,6 0 0 0 0.73,-2l6,0a11.1,11.1 0 0 1 -1.09,3.75a11.35,11.35 0 0 1 -2.48,3.19a11.56,11.56 0 0 1 -3.71,2.22a13.39,13.39 0 0 1 -4.84,0.82a13.23,13.23 0 0 1 -6.71,-1.7a12,12 0 0 1 -4.7,-4.94a16.58,16.58 0 0 1 -1.7,-7.8a16.37,16.37 0 0 1 1.72,-7.82a12.09,12.09 0 0 1 4.69,-4.91a13.21,13.21 0 0 1 6.67,-1.7a14.43,14.43 0 0 1 4.53,0.69a11.53,11.53 0 0 1 3.71,2a10.53,10.53 0 0 1 2.64,3.2a12.25,12.25 0 0 1 1.31,4.34z" fill="#c00"/>
   <path fill="#ffffff" id="svg_7" d="m424.41408,309.40001l0,-0.08l-0.08,0l-0.63,0.11a4.45,4.45 0 0 1 -0.81,0.08a2.55,2.55 0 0 1 -1,-0.18a1.23,1.23 0 0 1 -0.65,-0.58a2.49,2.49 0 0 1 -0.24,-1.21l0,-10.1l4,0l0,-4.56l-4,0l0,-7.11l-6,3.44l0,0l0,3.67l-2.91,0l0,4.56l2.9,0l0,10.88a6.27,6.27 0 0 0 0.88,3.48a5.25,5.25 0 0 0 2.5,2a8.5,8.5 0 0 0 3.26,0.58l0.47,0a10.13,10.13 0 0 0 2,-0.23c0.54,-0.12 0.95,-0.23 1.24,-0.32l0.07,0l-1,-4.43z"/>
   <path fill="#ffffff" id="svg_8" d="m377.89408,305.08001l13.53,0l0,-1.69a13.56,13.56 0 0 0 -0.76,-4.73a9.26,9.26 0 0 0 -2.13,-3.37a8.74,8.74 0 0 0 -3.18,-2a11.17,11.17 0 0 0 -3.92,-0.67a10.45,10.45 0 0 0 -5.44,1.37a9.56,9.56 0 0 0 -3.59,3.86a12.48,12.48 0 0 0 -1.27,5.74a12.57,12.57 0 0 0 1.27,5.81a9.11,9.11 0 0 0 3.64,3.79a11.32,11.32 0 0 0 5.63,1.33a12.55,12.55 0 0 0 4.63,-0.8a8.63,8.63 0 0 0 3.29,-2.28a7.41,7.41 0 0 0 1.7,-3.43l0,-0.09l-5.5,-0.37l-0.06,0l0,0.06a3.48,3.48 0 0 1 -2.21,2.16a5.46,5.46 0 0 1 -1.76,0.27a4.91,4.91 0 0 1 -2.49,-0.6a4.08,4.08 0 0 1 -1.62,-1.72a5.86,5.86 0 0 1 -0.57,-2.68l0,-3.67a4.55,4.55 0 0 1 0.56,-2a4.3,4.3 0 0 1 1.58,-1.6a4.42,4.42 0 0 1 2.31,-0.6a4.37,4.37 0 0 1 2.2,0.54a3.88,3.88 0 0 1 1.48,1.5a4.29,4.29 0 0 1 0.54,2.11l-7.86,0l0,3.76z"/>
   <path id="svg_9" class="cls-2" d="m448.34408,290.52001a8.35,8.35 0 0 0 -3.43,-3.36a11.34,11.34 0 0 0 -5.45,-1.21l-11.08,0l0,28.08l5.94,0l0,-8.21l0,0l0,-5.66l0,0l0,-9.39l4,0a6.15,6.15 0 0 1 2.85,0.58a3.89,3.89 0 0 1 1.68,1.63a5.73,5.73 0 0 1 0,4.9a3.9,3.9 0 0 1 -1.68,1.66a5.91,5.91 0 0 1 -2.83,0.59l-3.21,0l0,4.76l4.17,0a11.84,11.84 0 0 0 5.53,-1.12a8.38,8.38 0 0 0 3.49,-3.33a9.83,9.83 0 0 0 1.21,-4.94a10.06,10.06 0 0 0 -1.19,-4.98z" fill="#c00"/>
   <path id="svg_10" class="cls-2" d="m499.11408,302.69001a6.3,6.3 0 0 0 -2.28,-2.33a6.37,6.37 0 0 0 -3,-0.91l0,-0.27a7.3,7.3 0 0 0 2.61,-1.12a5.59,5.59 0 0 0 1.8,-2a6.07,6.07 0 0 0 0.66,-2.89a6.71,6.71 0 0 0 -1,-3.73a6.93,6.93 0 0 0 -3.11,-2.55a12.84,12.84 0 0 0 -5.17,-0.91l-11.29,0l0,28.05l12,0a12.36,12.36 0 0 0 5.31,-1a7.56,7.56 0 0 0 3.26,-2.76a7.35,7.35 0 0 0 1.1,-4a7,7 0 0 0 -0.89,-3.58zm-6.39,5.53a5.56,5.56 0 0 1 -3.62,0.95l-4.84,0l0,-7.46l0,0l0,-4l0,0l0,-6.94l4.51,0a4.5,4.5 0 0 1 3.05,0.93a3.08,3.08 0 0 1 1.08,2.45a3.26,3.26 0 0 1 -0.55,1.91a3.67,3.67 0 0 1 -1.51,1.23a5.37,5.37 0 0 1 -2.18,0.43l-3.58,0l0,4l4.16,0a5.51,5.51 0 0 1 2.46,0.51a3.91,3.91 0 0 1 1.6,1.4a3.81,3.81 0 0 1 0.56,2.06a3.15,3.15 0 0 1 -1.14,2.53z" fill="#c00"/>
  </g>
  <path fill="#fff" stroke="#000" opacity="NaN" d="m362,303" id="svg_2"/>
 </g>

</svg>